<?xml version="1.0" standalone="no"?>
<!DOCTYPE svg PUBLIC "-//W3C//DTD SVG 20010904//EN"
 "http://www.w3.org/TR/2001/REC-SVG-20010904/DTD/svg10.dtd">
<svg version="1.0" xmlns="http://www.w3.org/2000/svg"
 width="115.000000pt" height="212.000000pt" viewBox="0 0 115.000000 212.000000"
 preserveAspectRatio="xMidYMid meet">
<metadata>
Created by potrace 1.16, written by Peter Selinger 2001-2019
</metadata>
<g transform="translate(0.000000,212.000000) scale(0.100000,-0.100000)"
fill="#000000" stroke="none">
<path d="M610 1982 c-41 -59 -99 -138 -130 -177 -31 -38 -82 -104 -113 -145
-32 -41 -72 -94 -91 -117 -18 -23 -48 -78 -65 -123 -26 -68 -31 -96 -31 -165
0 -76 3 -89 36 -152 l36 -68 -16 -51 c-37 -119 -8 -293 78 -469 78 -159 106
-183 285 -245 116 -41 154 -50 210 -50 37 0 71 4 76 9 6 5 28 12 50 16 l40 7
-69 -66 c-65 -61 -69 -68 -60 -93 5 -15 16 -29 24 -30 8 -2 63 43 123 100 102
98 107 104 107 143 0 24 -6 47 -14 53 -8 7 -64 21 -125 32 -60 10 -122 24
-136 29 -15 6 -37 10 -51 10 -21 0 -24 -5 -24 -34 l0 -33 80 -19 c44 -11 80
-22 80 -25 0 -7 -42 -17 -105 -25 -37 -5 -176 34 -289 81 -44 18 -94 84 -144
189 -72 151 -100 309 -70 392 l11 32 39 -20 c21 -11 66 -22 101 -25 56 -4 66
-2 109 26 54 34 75 69 89 146 8 44 7 60 -6 84 -21 42 -43 51 -127 54 -65 2
-78 -1 -116 -26 -24 -15 -57 -48 -74 -73 l-32 -44 -20 32 c-17 27 -21 49 -21
118 0 78 3 91 37 160 21 41 57 98 80 126 143 173 368 481 368 506 0 12 -30 37
-45 38 -5 0 -44 -49 -85 -108z m-34 -814 c22 -16 -3 -90 -42 -127 -33 -31 -40
-33 -82 -27 -25 3 -58 14 -74 24 l-29 19 33 44 c51 66 89 88 141 82 23 -3 47
-10 53 -15z"/>
</g>
</svg>
